<?xml version="1.0" standalone="no"?>
<!DOCTYPE svg PUBLIC "-//W3C//DTD SVG 1.1//EN" "http://www.w3.org/Graphics/SVG/1.1/DTD/svg11.dtd" >
<svg>
<metadata>
Created by FontForge 20110222 at Fri Jul 18 16:56:48 2014
 By deploy user
HTF Knockout Copr. 1994-7 The Hoefler Type Foundry, Inc. http://www.typography.com
</metadata>
<defs>
<font id="Knockout-HTF90-UltmtWelterwt" horiz-adv-x="479" >
  <font-face 
    font-family="Knockout HTF90-UltmtWelterwt"
    font-weight="500"
    font-stretch="normal"
    units-per-em="1000"
    panose-1="0 0 0 0 0 0 0 0 0 0"
    ascent="800"
    descent="-200"
    x-height="491"
    cap-height="666"
    bbox="-236 -255 936 870"
    underline-thickness="139"
    underline-position="-81"
    unicode-range="U+0020-FB02"
  />
<missing-glyph horiz-adv-x="500" 
 />
    <glyph glyph-name=".notdef" horiz-adv-x="500" 
 />
    <glyph glyph-name=".null" horiz-adv-x="0" 
 />
    <glyph glyph-name="nonmarkingreturn" horiz-adv-x="333" 
 />
    <glyph glyph-name="space" unicode=" " horiz-adv-x="161" 
 />
    <glyph glyph-name="exclam" unicode="!" horiz-adv-x="223" 
d="M195 405l-51 -199h-65l-51 199v261h167v-261zM182 0h-143v152h143v-152z" />
    <glyph glyph-name="quotedbl" unicode="&#x22;" horiz-adv-x="371" 
d="M369 666l-90 -218h-114l62 218h142zM188 666l-67 -218h-111l39 218h139z" />
    <glyph glyph-name="numbersign" unicode="#" horiz-adv-x="653" 
d="M650 421h-144l-33 -176h146v-84h-162l-31 -161h-94l31 161h-126l-31 -161h-94l31 161h-128v84h144l34 176h-148v84h164l31 161h93l-31 -161h126l31 161h94l-31 -161h128v-84zM412 421h-126l-33 -176h126z" />
    <glyph glyph-name="dollar" unicode="$" horiz-adv-x="474" 
d="M453 189q0 -73 -39 -128t-113 -72v-81h-120v79q-91 13 -130.5 71t-33.5 162h166q-4 -96 50 -96q43 0 43 42q0 21 -18.5 41.5t-45.5 37t-59.5 40t-59.5 48t-45.5 62.5t-18.5 82q0 75 38.5 127.5t113.5 70.5v83h120v-79q82 -14 118.5 -74t32.5 -151h-167q2 46 -6.5 67
t-33.5 21q-18 0 -28.5 -11.5t-10.5 -30.5q0 -20 18.5 -40t45.5 -35.5t59.5 -38.5t59.5 -47.5t45.5 -63.5t18.5 -86z" />
    <glyph glyph-name="percent" unicode="%" horiz-adv-x="652" 
d="M285 455q0 -55 -36 -91.5t-98 -36.5t-98 36.5t-36 91.5v98q0 56 36 93t98 37t98 -37t36 -93v-98zM581 648l-454 -675l-58 45l454 675zM637 112q0 -55 -36 -92t-98 -37t-98 37t-36 92v98q0 56 35.5 92.5t98.5 36.5t98.5 -36.5t35.5 -92.5v-98zM174 440v129q0 10 -6.5 17
t-16.5 7q-11 0 -17.5 -6.5t-6.5 -17.5v-129q0 -10 6.5 -17t17.5 -7q10 0 16.5 7t6.5 17zM526 97v129q0 24 -23 24t-23 -24v-129q0 -24 23 -24t23 24z" />
    <glyph glyph-name="ampersand" unicode="&#x26;" horiz-adv-x="621" 
d="M618 110q0 -55 -30 -91t-82 -36q-58 0 -125 58q-78 -58 -165 -58q-95 0 -147.5 51t-52.5 127q0 62 34 114t95 86q-39 63 -39 132q0 88 58 139t140 51q74 0 121 -42.5t47 -105.5q0 -58 -28.5 -105t-102.5 -93q25 -45 56 -91q15 40 18 101h137q0 -124 -63 -216
q21 -18 39 -18q20 0 20 32v24h70v-59zM326 504q0 34 -24 34q-31 0 -31 -48q0 -29 14 -55q41 26 41 69zM273 141q-42 53 -67 107q-24 -22 -24 -58q0 -25 16 -41.5t40 -16.5q22 0 35 9z" />
    <glyph glyph-name="quotesingle" unicode="'" horiz-adv-x="213" 
d="M217 666l-94 -218h-103l36 218h161z" />
    <glyph glyph-name="parenleft" unicode="(" horiz-adv-x="349" 
d="M366 -134l-44 -50q-121 89 -183.5 219.5t-62.5 262.5q0 133 62.5 263.5t183.5 218.5l44 -49q-138 -174 -138 -433q0 -258 138 -432z" />
    <glyph glyph-name="parenright" unicode=")" horiz-adv-x="349" 
d="M276 298q0 -132 -62.5 -262.5t-183.5 -219.5l-44 50q138 174 138 432q0 259 -138 433l44 49q121 -88 183.5 -218.5t62.5 -263.5z" />
    <glyph glyph-name="asterisk" unicode="*" horiz-adv-x="323" 
d="M308 461l-27 -47q-7 -12 -21 -3q-34 20 -71 56q14 -53 14 -90q0 -16 -14 -16h-54q-13 0 -13 16q0 37 13 89q-38 -38 -71 -57q-14 -7 -21 4l-27 47q-6 13 8 19q30 18 83 34q-51 14 -84 33q-14 7 -7 20l27 46q6 13 20 4q34 -20 71 -56q-14 52 -14 90q0 16 14 16h54
q13 0 13 -16q0 -37 -13 -89q43 41 71 56q13 9 21 -3l27 -47q7 -11 -7 -20q-33 -19 -84 -33q54 -15 84 -33q13 -8 8 -20z" />
    <glyph glyph-name="plus" unicode="+" horiz-adv-x="385" 
d="M365 282h-111v-120h-123v120h-111v115h111v120h123v-120h111v-115z" />
    <glyph glyph-name="comma" unicode="," horiz-adv-x="184" 
d="M165 35q0 -146 -146 -146v40q59 0 59 71h-59v160h146v-125z" />
    <glyph glyph-name="hyphen" unicode="-" horiz-adv-x="275" 
d="M265 224h-255v130h255v-130z" />
    <glyph glyph-name="period" unicode="." horiz-adv-x="184" 
d="M165 0h-146v160h146v-160z" />
    <glyph glyph-name="slash" unicode="/" horiz-adv-x="267" 
d="M264 730l-173 -794h-88l173 794h88z" />
    <glyph glyph-name="zero" unicode="0" horiz-adv-x="485" 
d="M463 191q0 -91 -56.5 -149.5t-164.5 -58.5t-164 58.5t-56 149.5v284q0 92 56 150t164 58t164.5 -58t56.5 -150v-284zM280 182v302q0 44 -38 44q-37 0 -37 -44v-302q0 -44 37 -44q38 0 38 44z" />
    <glyph glyph-name="one" unicode="1" horiz-adv-x="257" 
d="M222 0h-185v593q37 0 54.5 20.5t17.5 52.5h113v-666z" />
    <glyph glyph-name="two" unicode="2" horiz-adv-x="456" 
d="M443 493q0 -62 -32 -117.5t-109 -120.5q-75 -63 -75 -99h205v-156h-423v48q0 80 39 148t131 153q89 81 89 136q0 49 -39 49t-39 -56v-47h-168v64q0 83 53 135.5t157 52.5q113 0 162 -52.5t49 -137.5z" />
    <glyph glyph-name="three" unicode="3" horiz-adv-x="458" 
d="M445 176q0 -88 -53 -140.5t-167 -52.5q-103 0 -156.5 54t-53.5 134v53h168v-45q0 -47 42 -47q37 0 37 49v55q0 34 -33 34h-54v131h54q33 0 33 34v50q0 49 -37 49q-42 0 -42 -47v-45h-168v53q0 80 53.5 134t156.5 54q114 0 167 -52.5t53 -140.5v-10q0 -52 -23.5 -91
t-77.5 -48q101 -25 101 -139v-26z" />
    <glyph glyph-name="four" unicode="4" horiz-adv-x="475" 
d="M467 128h-60v-128h-175v128h-224v136l236 402h163v-403h60v-135zM232 263v131l-74 -131h74z" />
    <glyph glyph-name="five" unicode="5" horiz-adv-x="454" 
d="M437 666q-15 -155 -89 -155h-155l-5 -118q38 56 114 56q68 0 104.5 -43t36.5 -113v-117q0 -84 -57.5 -138.5t-162.5 -54.5t-157.5 49.5t-52.5 131.5v56h168v-37q0 -51 40 -51q39 0 39 46v100q0 49 -37 49q-33 0 -38 -37l-163 18l16 358h399z" />
    <glyph glyph-name="six" unicode="6" horiz-adv-x="477" 
d="M463 191q0 -90 -59 -148.5t-165 -58.5q-108 0 -162.5 57.5t-54.5 149.5v274q0 96 57.5 157t169.5 61q108 0 157.5 -53.5t49.5 -134.5v-43h-170v31q0 27 -8.5 39t-30.5 12q-42 0 -42 -50v-140q49 62 126 62q65 0 98.5 -41t33.5 -109v-65zM280 174v79q0 42 -38 42
q-37 0 -37 -42v-79q0 -42 37 -42q38 0 38 42z" />
    <glyph glyph-name="seven" unicode="7" horiz-adv-x="418" 
d="M426 577q-83 -144 -117.5 -276t-34.5 -301h-205q0 134 52 278t126 224h-239v164h418v-89z" />
    <glyph glyph-name="eight" unicode="8" horiz-adv-x="481" 
d="M461 176q0 -81 -58 -137t-163 -56q-104 0 -162 56t-58 137v18q0 98 80 142q-80 35 -80 140v14q0 82 58 137.5t162 55.5q105 0 163 -55.5t58 -137.5v-14q0 -105 -80 -140q80 -44 80 -142v-18zM278 429v59q0 44 -38 44q-37 0 -37 -44v-59q0 -44 37 -44q38 0 38 44zM278 178
v59q0 44 -38 44q-37 0 -37 -44v-59q0 -44 37 -44q38 0 38 44z" />
    <glyph glyph-name="nine" unicode="9" horiz-adv-x="484" 
d="M462 202q0 -97 -54.5 -158t-165.5 -61q-110 0 -166 53.5t-56 134.5v34h170v-20q0 -27 9 -40t34 -13q46 0 46 52v130q-25 -30 -50.5 -45.5t-68.5 -15.5q-69 0 -104 40.5t-35 108.5v73q0 91 59 149.5t165 58.5q107 0 162 -58t55 -150v-273zM279 405v87q0 42 -38 42
q-37 0 -37 -42v-87q0 -42 37 -42q38 0 38 42z" />
    <glyph glyph-name="colon" unicode=":" horiz-adv-x="204" 
d="M175 292h-146v160h146v-160zM175 0h-146v160h146v-160z" />
    <glyph glyph-name="semicolon" unicode=";" horiz-adv-x="204" 
d="M175 292h-146v160h146v-160zM175 35q0 -146 -146 -146v40q59 0 59 71h-59v160h146v-125z" />
    <glyph glyph-name="less" unicode="&#x3c;" 
d="M414 65l-376 254v29l376 253v-156l-166 -112l166 -112v-156z" />
    <glyph glyph-name="equal" unicode="=" horiz-adv-x="381" 
d="M359 377h-337v115h337v-115zM359 201h-337v115h337v-115z" />
    <glyph glyph-name="greater" unicode="&#x3e;" 
d="M441 319l-376 -254v156l166 112l-166 112v156l376 -253v-29z" />
    <glyph glyph-name="question" unicode="?" horiz-adv-x="433" 
d="M425 507q0 -57 -26 -101.5t-84 -90.5q-59 -47 -59 -109h-126q0 62 16 103.5t60 88.5q45 48 45 90q0 46 -37 46q-38 0 -38 -53v-43h-162v49q0 86 52.5 141t150.5 55q102 0 155 -49t53 -127zM264 0h-144v152h144v-152z" />
    <glyph glyph-name="at" unicode="@" horiz-adv-x="713" 
d="M700 386q0 -93 -53.5 -161.5t-145.5 -68.5q-47 0 -75.5 23.5t-28.5 62.5q-43 -76 -114 -76q-53 0 -84.5 32.5t-31.5 84.5q0 74 57 145t136 71q33 0 53 -15.5t24 -42.5l17 49h107l-71 -206q-11 -33 -1.5 -50.5t35.5 -17.5q41 0 75 46.5t34 120.5q0 105 -75.5 173
t-189.5 68q-123 0 -204.5 -85.5t-81.5 -206.5t81.5 -206.5t204.5 -85.5q120 0 198 72l38 -45q-95 -84 -236 -84q-150 0 -251.5 100.5t-101.5 245.5q0 146 102 249.5t251 103.5q82 0 148 -28t105 -73t59 -95.5t20 -99.5zM419 396q0 43 -37 43q-42 0 -74.5 -57t-32.5 -107
q0 -20 9.5 -32t26.5 -12q26 0 47 22t32 53z" />
    <glyph glyph-name="A" unicode="A" 
d="M487 0h-197l-13 93h-90l-16 -93h-181l135 666h230zM261 216l-23 200l-31 -200h54z" />
    <glyph glyph-name="B" unicode="B" horiz-adv-x="496" 
d="M476 157q0 -71 -43 -114t-134 -43h-274v666h274q91 0 134 -43t43 -114v-40q0 -112 -102 -130q102 -25 102 -129v-53zM287 423v68q0 33 -31 33h-30v-134h30q31 0 31 33zM287 175v67q0 33 -31 33h-30v-134h30q31 0 31 34z" />
    <glyph glyph-name="C" unicode="C" horiz-adv-x="502" 
d="M489 191q0 -90 -58.5 -149t-163.5 -59q-118 0 -182.5 61.5t-64.5 157.5v262q0 96 64.5 157.5t182.5 61.5q106 0 164 -58.5t58 -149.5v-67h-187v72q0 48 -39 48q-38 0 -38 -48v-294q0 -48 38 -48q39 0 39 48v72h187v-67z" />
    <glyph glyph-name="D" unicode="D" horiz-adv-x="514" 
d="M496 202q0 -202 -232 -202h-239v666h239q117 0 174.5 -60t57.5 -159v-245zM296 211v244q0 30 -9.5 44.5t-35.5 14.5h-26v-361h26q26 0 35.5 14t9.5 44z" />
    <glyph glyph-name="E" unicode="E" horiz-adv-x="442" 
d="M428 0h-403v666h403v-154h-202v-102h129v-141h-129v-107h202v-162z" />
    <glyph glyph-name="F" unicode="F" horiz-adv-x="432" 
d="M425 511h-199v-123h129v-149h-129v-239h-201v666h400v-155z" />
    <glyph glyph-name="G" unicode="G" horiz-adv-x="516" 
d="M495 0h-112l-20 65q-18 -38 -54.5 -60t-79.5 -22q-102 0 -155.5 60.5t-53.5 159.5v243q0 109 63 173t182 64q115 0 171 -59.5t56 -146.5v-69h-195v78q0 42 -36 42t-36 -42v-308q0 -40 38 -40q39 0 39 40v58h-41v108h234v-344z" />
    <glyph glyph-name="H" unicode="H" horiz-adv-x="543" 
d="M518 0h-201v237h-91v-237h-201v666h201v-263h91v263h201v-666z" />
    <glyph glyph-name="I" unicode="I" horiz-adv-x="250" 
d="M225 0h-200v666h200v-666z" />
    <glyph glyph-name="J" unicode="J" horiz-adv-x="481" 
d="M459 191q0 -95 -59 -151.5t-164 -56.5q-116 0 -170.5 55t-54.5 153v81h182v-99q0 -35 33 -35q15 0 24 9.5t9 25.5v493h200v-475z" />
    <glyph glyph-name="K" unicode="K" horiz-adv-x="525" 
d="M523 0h-211l-61 248l-25 -55v-193h-201v666h201v-271l90 271h202l-113 -295z" />
    <glyph glyph-name="L" unicode="L" horiz-adv-x="417" 
d="M416 0h-391v666h200v-505h191v-161z" />
    <glyph glyph-name="M" unicode="M" horiz-adv-x="694" 
d="M669 0h-193v360l-25 -111l-55 -249h-131l-50 249l-23 111v-360h-167v666h260l50 -235l18 -90l17 90l49 235h250v-666z" />
    <glyph glyph-name="N" unicode="N" horiz-adv-x="529" 
d="M504 0h-166l-93 217l-42 96v-313h-178v666h173l96 -223l33 -78v301h177v-666z" />
    <glyph glyph-name="O" unicode="O" horiz-adv-x="516" 
d="M496 191q0 -89 -65.5 -148.5t-172.5 -59.5t-172.5 59.5t-65.5 148.5v284q0 88 65.5 147.5t172.5 59.5t172.5 -59.5t65.5 -147.5v-284zM291 173v320q0 35 -33 35t-33 -35v-320q0 -35 33 -35t33 35z" />
    <glyph glyph-name="P" unicode="P" horiz-adv-x="486" 
d="M476 402q0 -81 -50 -128t-129 -47h-71v-227h-201v666h272q79 0 129 -47t50 -128v-89zM287 390v101q0 33 -31 33h-30v-166h30q31 0 31 32z" />
    <glyph glyph-name="Q" unicode="Q" horiz-adv-x="520" 
d="M530 0q-21 -17 -69 -17q-60 0 -94 36q-50 -36 -123 -36q-102 0 -163 59.5t-61 148.5v284q0 89 65 148.5t172 59.5t172.5 -59.5t65.5 -148.5v-270q0 -42 -8 -61q14 -10 43 -10v-134zM291 230v263q0 35 -34 35q-33 0 -33 -35v-320q0 -16 9 -25.5t24 -9.5q14 0 23 6l-28 27z
" />
    <glyph glyph-name="R" unicode="R" horiz-adv-x="501" 
d="M502 0h-170q-20 0 -31 31.5t-11 71.5v106q0 43 -38 43h-27v-252h-200v666h268q81 0 132 -42t51 -110v-96q0 -74 -85 -96q43 -8 65.5 -34t22.5 -61v-116q0 -47 23 -108v-3zM285 410v81q0 33 -30 33h-30v-147h30q30 0 30 33z" />
    <glyph glyph-name="S" unicode="S" horiz-adv-x="472" 
d="M462 189q0 -87 -55 -146.5t-165 -59.5q-129 0 -184.5 57.5t-49.5 179.5h179q-4 -91 47 -91q42 0 42 42q0 24 -26.5 47.5t-63.5 45.5t-74.5 48.5t-64 69.5t-26.5 95q0 90 56.5 147.5t169.5 57.5q62 0 106.5 -19.5t67.5 -53.5t32 -72.5t7 -82.5h-178q2 42 -6.5 62t-32.5 20
q-36 0 -36 -42q0 -24 26.5 -46t63.5 -43t74.5 -47t64 -70t26.5 -99z" />
    <glyph glyph-name="T" unicode="T" horiz-adv-x="465" 
d="M462 505h-129v-505h-201v505h-129v161h459v-161z" />
    <glyph glyph-name="U" unicode="U" horiz-adv-x="512" 
d="M488 183q0 -93 -58 -146.5t-171 -53.5t-174 54.5t-61 145.5v483h203v-485q0 -36 32 -36q33 0 33 36v485h196v-483z" />
    <glyph glyph-name="V" unicode="V" horiz-adv-x="491" 
d="M498 666l-157 -666h-200l-151 666h204l57 -382l53 382h194z" />
    <glyph glyph-name="W" unicode="W" horiz-adv-x="691" 
d="M703 666l-124 -666h-180l-52 287l-54 -287h-176l-127 666h196l50 -356l48 356h145l50 -356l51 356h173z" />
    <glyph glyph-name="X" unicode="X" horiz-adv-x="497" 
d="M490 0h-207l-47 187l-50 -187h-194l129 334l-124 332h207l47 -189l51 189h193l-128 -334z" />
    <glyph glyph-name="Y" unicode="Y" horiz-adv-x="504" 
d="M516 666l-167 -416v-250h-200v259l-159 407h210l61 -217l53 217h202z" />
    <glyph glyph-name="Z" unicode="Z" horiz-adv-x="456" 
d="M451 617l-216 -451h208v-166h-445v49l220 456h-206v161h439v-49z" />
    <glyph glyph-name="bracketleft" unicode="[" horiz-adv-x="349" 
d="M328 -167h-233v931h233v-98h-116v-735h116v-98z" />
    <glyph glyph-name="backslash" unicode="\" horiz-adv-x="287" 
d="M278 -64h-88l-173 794h88z" />
    <glyph glyph-name="bracketright" unicode="]" horiz-adv-x="349" 
d="M254 -167h-233v98h116v735h-116v98h233v-931z" />
    <glyph glyph-name="asciicircum" unicode="^" horiz-adv-x="324" 
d="M318 542q-21 -7 -49 -7q-45 0 -71.5 19t-38.5 64q-12 -45 -38.5 -64t-71.5 -19q-22 0 -43 7v41q26 0 49 26t37 75h140q13 -49 36.5 -75t49.5 -26v-41z" />
    <glyph glyph-name="underscore" unicode="_" horiz-adv-x="375" 
d="M375 -130h-375v130h375v-130z" />
    <glyph glyph-name="grave" unicode="`" horiz-adv-x="224" 
d="M194 546h-101l-101 150h159z" />
    <glyph glyph-name="a" unicode="a" horiz-adv-x="408" 
d="M403 -4h-52q-42 0 -64 15.5t-35 52.5q-35 -72 -119 -72q-61 0 -95 34.5t-34 97.5v5q0 65 49.5 101t161.5 64v60q0 29 -21 29q-13 0 -16 -14t-3 -53h-154q-5 184 182 184q88 0 134 -44.5t46 -116.5v-202q0 -14 4 -19.5t16 -5.5v-116zM215 126v96q-47 -14 -47 -66v-24
q0 -38 23 -38q24 0 24 32z" />
    <glyph glyph-name="b" unicode="b" horiz-adv-x="419" 
d="M401 139q0 -70 -34 -108.5t-103 -38.5q-36 0 -59.5 13t-41.5 42l-5 -47h-136v666h168v-203q38 37 91 37t86.5 -39t33.5 -99v-223zM237 153v184q0 36 -24 36q-23 0 -23 -36v-184q0 -36 23 -36q24 0 24 36z" />
    <glyph glyph-name="c" unicode="c" horiz-adv-x="400" 
d="M385 201q2 -107 -41.5 -158t-139.5 -51q-87 0 -136.5 47t-49.5 123v167q0 77 49.5 124t136.5 47q95 0 139 -51.5t42 -157.5h-150v50q0 39 -26 39q-15 0 -21 -8t-6 -30v-193q0 -21 6 -29.5t21 -8.5q26 0 26 40v50h150z" />
    <glyph glyph-name="d" unicode="d" horiz-adv-x="419" 
d="M397 0h-136l-5 47q-35 -55 -102 -55q-69 0 -102.5 39t-33.5 109v222q0 60 35.5 99t89.5 39q31 0 48 -6.5t38 -28.5v201h168v-666zM229 153v184q0 36 -24 36q-23 0 -23 -36v-184q0 -36 23 -36q24 0 24 36z" />
    <glyph glyph-name="e" unicode="e" horiz-adv-x="406" 
d="M392 183q0 -191 -187 -191q-86 0 -136.5 48.5t-50.5 121.5v167q0 73 50.5 121.5t136.5 48.5t136.5 -48.5t50.5 -121.5v-105h-211v-77q0 -12 1.5 -19t7.5 -12t17 -5q18 0 23 13t5 59h157zM229 294v51q0 35 -24 35t-24 -35v-51h48z" />
    <glyph glyph-name="f" unicode="f" horiz-adv-x="316" 
d="M316 364h-76v-364h-169v364h-63v121h63v10q0 84 43.5 127.5t149.5 43.5h47v-118h-13q-34 0 -47 -12.5t-13 -40.5v-10h78v-121z" />
    <glyph glyph-name="g" unicode="g" horiz-adv-x="415" 
d="M437 503q0 -29 -17 -48.5t-43 -19.5q-15 0 -36 11q52 -47 52 -111v-4q0 -68 -49 -110t-138 -42q-13 0 -31 2q-37 0 -37 -21q0 -23 79 -23q200 0 200 -133v-5q0 -69 -54.5 -112t-153.5 -43q-95 0 -148.5 31t-53.5 82v2q0 26 22.5 49.5t59.5 34.5q-75 32 -75 81
q0 30 26.5 52.5t68.5 25.5q-40 14 -65 50.5t-25 80.5v3q0 70 53 117t134 47q18 0 38 -3.5t23 -3.5q29 0 38 11t9 42h120q3 -27 3 -43zM235 307v54q0 35 -27 35q-28 0 -28 -35v-54q0 -35 28 -35q27 0 27 35zM279 -11v3q0 29 -63 29q-65 0 -65 -29v-3q0 -29 65 -29q63 0 63 29
z" />
    <glyph glyph-name="h" unicode="h" horiz-adv-x="428" 
d="M408 0h-168v337q0 36 -23 36q-26 0 -26 -36v-337h-169v666h169v-221q41 54 107 54q51 0 80.5 -32.5t29.5 -87.5v-379z" />
    <glyph glyph-name="i" unicode="i" horiz-adv-x="213" 
d="M191 524h-169v142h169v-142zM191 0h-169v491h169v-491z" />
    <glyph glyph-name="j" unicode="j" horiz-adv-x="212" 
d="M191 525h-169v141h169v-141zM191 23q0 -86 -46.5 -129.5t-146.5 -43.5h-47v118h20q29 0 40 11.5t11 37.5v474h169v-468z" />
    <glyph glyph-name="k" unicode="k" horiz-adv-x="423" 
d="M426 0h-168l-47 177l-20 -55v-122h-169v666h169v-357l64 183h172l-92 -206z" />
    <glyph glyph-name="l" unicode="l" horiz-adv-x="213" 
d="M191 0h-169v666h169v-666z" />
    <glyph glyph-name="m" unicode="m" horiz-adv-x="639" 
d="M619 0h-168v337q0 36 -23 36q-26 0 -26 -36v-337h-162v337q0 36 -24 36q-25 0 -25 -36v-337h-169v491h144l6 -64q41 72 117 72q75 0 98 -79q19 39 55 59t76 20q50 0 75.5 -32t25.5 -88v-379z" />
    <glyph glyph-name="n" unicode="n" horiz-adv-x="428" 
d="M408 0h-168v337q0 36 -23 36q-26 0 -26 -36v-337h-169v491h145l6 -64q40 72 119 72q52 0 84 -33t32 -87v-379z" />
    <glyph glyph-name="o" unicode="o" horiz-adv-x="411" 
d="M393 162q0 -73 -51 -121.5t-137 -48.5t-136.5 48.5t-50.5 121.5v167q0 73 50.5 121.5t136.5 48.5t137 -48.5t51 -121.5v-167zM229 146v199q0 35 -24 35t-24 -35v-199q0 -35 24 -35t24 35z" />
    <glyph glyph-name="p" unicode="p" horiz-adv-x="419" 
d="M401 127q0 -65 -31 -100.5t-86 -35.5t-94 35v-173h-168v638h136l5 -52q44 60 114 60q124 0 124 -149v-223zM237 153v184q0 36 -24 36q-23 0 -23 -36v-184q0 -36 23 -36q24 0 24 36z" />
    <glyph glyph-name="q" unicode="q" horiz-adv-x="419" 
d="M397 -147h-168v175q-40 -37 -91 -37q-55 0 -87.5 35.5t-32.5 100.5v217q0 72 33 113.5t98 41.5q69 0 107 -60l5 52h136v-638zM229 153v184q0 36 -24 36q-23 0 -23 -36v-184q0 -36 23 -36q24 0 24 36z" />
    <glyph glyph-name="r" unicode="r" horiz-adv-x="325" 
d="M318 335q-76 11 -102 -6.5t-26 -58.5v-270h-168v491h144l9 -88q11 57 50 80t93 11v-159z" />
    <glyph glyph-name="s" unicode="s" horiz-adv-x="383" 
d="M374 141q0 -60 -45.5 -104.5t-135.5 -44.5q-99 0 -143.5 43t-42.5 126h148q0 -34 7.5 -47t25.5 -13q30 0 30 29q0 15 -15.5 28t-38 22t-49.5 23.5t-49.5 31t-38 46.5t-15.5 69q0 69 49 109.5t132 40.5q186 0 180 -168h-148q0 32 -6 44t-23 12q-26 0 -26 -26q0 -18 21 -33
t51 -29t60 -32t51 -50.5t21 -76.5z" />
    <glyph glyph-name="t" unicode="t" horiz-adv-x="312" 
d="M313 364h-76v-210q0 -90 32 -154h-174q-27 51 -27 154v210h-63v121h69v88l163 36v-124h76v-121z" />
    <glyph glyph-name="u" unicode="u" horiz-adv-x="431" 
d="M408 0h-145l-6 64q-40 -72 -119 -72q-52 0 -84 33t-32 87v379h168v-338q0 -36 24 -36q25 0 25 36v338h169v-491z" />
    <glyph glyph-name="v" unicode="v" horiz-adv-x="393" 
d="M403 491l-122 -491h-169l-121 491h167l33 -207l11 -81l10 81l32 207h159z" />
    <glyph glyph-name="w" unicode="w" horiz-adv-x="574" 
d="M586 491l-103 -491h-166l-26 158l-10 80l-11 -80l-26 -158h-154l-99 491h163l27 -187l11 -81l11 81l28 187h122l28 -187l11 -81l11 81l28 187h155z" />
    <glyph glyph-name="x" unicode="x" horiz-adv-x="403" 
d="M405 0h-168l-38 132l-40 -132h-165l104 240l-104 251h168l40 -142l38 142h165l-104 -232z" />
    <glyph glyph-name="y" unicode="y" horiz-adv-x="414" 
d="M411 491l-115 -451q-28 -108 -70.5 -149t-127.5 -41h-66v132h21q32 0 44 7t17 29l1 4l-120 469h171l31 -205l11 -81l10 81l30 205h163z" />
    <glyph glyph-name="z" unicode="z" horiz-adv-x="353" 
d="M352 431l-154 -296h148v-135h-346v60l156 296h-147v135h343v-60z" />
    <glyph glyph-name="braceleft" unicode="{" horiz-adv-x="341" 
d="M297 -167h-53q-79 0 -123.5 41t-44.5 103q0 46 21.5 92.5t43 83t21.5 59.5q0 29 -16.5 41.5t-58.5 12.5h-33v65h33q42 0 58.5 12.5t16.5 40.5q0 23 -21.5 60t-43 83.5t-21.5 92.5q0 62 44.5 103t123.5 41h53v-98h-23q-55 0 -55 -56q0 -43 24 -99.5t24 -83.5
q0 -52 -20.5 -78.5t-81.5 -38.5q61 -12 81.5 -38.5t20.5 -78.5q0 -27 -24 -95t-24 -111q0 -56 55 -56h23v-98z" />
    <glyph glyph-name="bar" unicode="|" horiz-adv-x="155" 
d="M120 -64h-85v794h85v-794z" />
    <glyph glyph-name="braceright" unicode="}" horiz-adv-x="341" 
d="M287 266h-33q-42 0 -58.5 -12.5t-16.5 -41.5q0 -23 21.5 -59.5t43 -83t21.5 -92.5q0 -62 -44.5 -103t-123.5 -41h-53v98h23q55 0 55 56q0 43 -24 111t-24 95q0 52 20.5 78.5t81.5 38.5q-61 12 -81.5 38.5t-20.5 78.5q0 27 24 83.5t24 99.5q0 56 -55 56h-23v98h53
q79 0 123.5 -41t44.5 -103q0 -46 -21.5 -92.5t-43 -83.5t-21.5 -60q0 -28 16.5 -40.5t58.5 -12.5h33v-65z" />
    <glyph glyph-name="asciitilde" unicode="~" horiz-adv-x="327" 
d="M323 353q0 -41 -22.5 -68t-69.5 -27q-32 0 -73.5 21t-51.5 21q-28 0 -28 -26v-12h-58q-15 20 -15 52q0 41 24 68.5t68 27.5q32 0 74 -21t51 -21q28 0 28 26v12h59q14 -20 14 -53z" />
    <glyph glyph-name="nbspace" unicode="&#xa0;" horiz-adv-x="80" 
 />
    <glyph glyph-name="exclamdown" unicode="&#xa1;" horiz-adv-x="223" 
d="M182 339h-143v152h143v-152zM193 -175h-167v261l51 199h65l51 -199v-261z" />
    <glyph glyph-name="cent" unicode="&#xa2;" horiz-adv-x="424" 
d="M396 288q5 -180 -125 -208v-80h-113v81q-62 15 -95.5 61t-33.5 114v153q0 69 33.5 114.5t95.5 60.5v82h113v-81q130 -28 125 -207h-150v50q0 39 -26 39q-15 0 -21 -8t-6 -30v-193q0 -21 6 -29.5t21 -8.5q26 0 26 40v50h150z" />
    <glyph glyph-name="sterling" unicode="&#xa3;" horiz-adv-x="549" 
d="M538 147q0 -70 -44 -117t-122 -47q-90 0 -162 55q-41 -55 -105 -55q-47 0 -78 29.5t-31 72.5q0 47 32.5 77t90.5 30q31 0 62 -11q14 19 14 39q0 26 -15 47h-136v108h98q-35 67 -35 122q0 76 52 131t152 55q200 0 200 -208v-20h-163v30q0 43 -29 43q-31 0 -31 -44
q0 -43 40 -109h134v-108h-110q2 -16 2 -22q0 -66 -66 -109q23 -15 55 -15q29 0 40.5 15.5t11.5 48.5v25h143v-63zM156 88q-18 21 -45 21q-29 0 -29 -24q0 -9 8 -16t22 -7q29 0 44 26z" />
    <glyph glyph-name="currency" unicode="&#xa4;" horiz-adv-x="493" 
d="M292 442v38q0 48 -38 48t-38 -48v-86h201v-122h-201v-86q0 -48 38 -48t38 48v38h188v-33q0 -90 -58.5 -149t-163.5 -59q-117 0 -177.5 61t-60.5 158v262q0 97 60.5 158t177.5 61q106 0 164 -58.5t58 -149.5v-33h-188z" />
    <glyph glyph-name="yen" unicode="&#xa5;" horiz-adv-x="527" 
d="M352 267v-51h131v-105h-131v-111h-184v111h-125v105h125v51h-125v105h90l-114 294h190l61 -222l54 222h183l-118 -294h94v-105h-131z" />
    <glyph glyph-name="section" unicode="&#xa7;" horiz-adv-x="482" 
d="M461 266q0 -74 -71 -124q60 -50 60 -120q0 -76 -53 -127t-154 -51q-107 0 -161.5 53.5t-54.5 130.5v14h164v-21q0 -17 11 -28t31 -11q42 0 42 40q0 18 -25.5 35.5t-61.5 34t-72.5 37t-62 53.5t-25.5 74q0 80 67 127q-62 48 -62 125q0 74 53 124.5t152 50.5q107 0 158 -53
t51 -131v-15h-164v22q0 39 -39 39t-39 -40q0 -18 26.5 -36t64 -35.5t75 -38.5t64 -54.5t26.5 -74.5zM313 230q0 20 -21.5 39.5t-92.5 52.5q-22 -6 -22 -29q0 -20 21.5 -39.5t92.5 -52.5q22 5 22 29z" />
    <glyph glyph-name="dieresis" unicode="&#xa8;" horiz-adv-x="286" 
d="M279 541h-119v125h119v-125zM126 541h-119v125h119v-125z" />
    <glyph glyph-name="copyright" unicode="&#xa9;" horiz-adv-x="729" 
d="M714 333q0 -146 -100 -248t-249 -102t-249.5 102t-100.5 248t100.5 248t249.5 102t249 -102t100 -248zM659 333q0 127 -83 214t-211 87q-129 0 -212 -87t-83 -214q0 -126 83 -213t212 -87t211.5 86.5t82.5 213.5zM506 260q0 -50 -37 -79.5t-96 -29.5q-65 0 -105 34.5
t-40 90.5v119q0 55 40.5 90t103.5 35q64 0 99.5 -30.5t35.5 -82.5v-27h-98v21q0 35 -35 35q-34 0 -34 -35v-134q0 -32 34 -32q35 0 35 31v25h97v-31z" />
    <glyph glyph-name="ordfeminine" unicode="&#xaa;" horiz-adv-x="347" 
d="M336 310h-54q-33 0 -48.5 11t-24.5 39q-26 -54 -92 -54q-49 0 -75.5 25.5t-26.5 72.5v3q0 48 39 75t125 47v42q0 21 -15 21q-9 0 -11 -10t-2 -39h-123q-2 65 33.5 102t108.5 37q142 0 142 -121v-141q0 -18 24 -18v-92zM179 407v68q-32 -10 -32 -47v-17q0 -28 15 -28
q17 0 17 24z" />
    <glyph glyph-name="guillemotleft" unicode="&#xab;" horiz-adv-x="469" 
d="M450 0h-64q-29 111 -144 149v90q115 37 144 149h64q0 -72 -17 -117t-61 -77q44 -32 61 -77t17 -117zM224 0h-64q-29 111 -144 149v90q115 37 144 149h64q0 -72 -17 -117t-61 -77q44 -32 61 -77t17 -117z" />
    <glyph glyph-name="logicalnot" unicode="&#xac;" horiz-adv-x="444" 
d="M411 227l-83 -83l-107 107l-106 -107l-82 82l106 106l-106 107l83 82l107 -106l106 106l82 -81l-107 -106z" />
    <glyph glyph-name="registered" unicode="&#xae;" horiz-adv-x="729" 
d="M714 333q0 -146 -100 -248t-249 -102t-249.5 102t-100.5 248t100.5 248t249.5 102t249 -102t100 -248zM659 333q0 127 -83 214t-211 87q-129 0 -212 -87t-83 -214q0 -126 83 -213t212 -87t211.5 86.5t82.5 213.5zM529 161h-94q-11 0 -18 16t-7 38v52q0 27 -24 27h-36
v-133h-110v349h169q50 0 77 -23.5t27 -63.5v-32q0 -46 -48 -61q25 -6 37.5 -22t12.5 -36v-53q0 -31 14 -57v-1zM407 376v35q0 21 -26 21h-31v-77h31q26 0 26 21z" />
    <glyph glyph-name="macron" unicode="&#xaf;" horiz-adv-x="286" 
d="M283 560h-280v95h280v-95z" />
    <glyph glyph-name="degree" unicode="&#xb0;" horiz-adv-x="300" 
d="M296 541q0 -58 -41 -100t-105 -42t-105 42t-41 100t41 100t105 42t105 -42t41 -100zM213 541q0 31 -17 49.5t-46 18.5q-30 0 -47 -19t-17 -49t17 -49t47 -19q29 0 46 18.5t17 49.5z" />
    <glyph glyph-name="plusminus" unicode="&#xb1;" horiz-adv-x="507" 
d="M483 0h-459v484h459v-484zM432 49v386h-357v-386h357z" />
    <glyph glyph-name="acute" unicode="&#xb4;" horiz-adv-x="224" 
d="M232 696l-100 -150h-102l43 150h159z" />
    <glyph glyph-name="mu" unicode="&#xb5;" horiz-adv-x="312" 
d="M313 364h-76v-210q0 -90 32 -154h-174q-27 51 -27 154v210h-63v121h69v88l163 36v-124h76v-121z" />
    <glyph glyph-name="paragraph" unicode="&#xb6;" horiz-adv-x="576" 
d="M544 -150h-90v690h-53v-690h-90v327h-44q-112 0 -178 65.5t-66 170.5v16q0 106 66 171.5t178 65.5h277v-816zM311 291v249h-21q-55 0 -55 -80v-90q0 -79 55 -79h21z" />
    <glyph glyph-name="periodcentered" unicode="&#xb7;" horiz-adv-x="204" 
d="M175 252h-146v160h146v-160z" />
    <glyph glyph-name="cedilla" unicode="&#xb8;" horiz-adv-x="206" 
d="M224 -148q0 -50 -28.5 -78.5t-88.5 -28.5q-26 0 -39 5v52h17q34 0 34 43v6q0 42 -34 42q-21 0 -40 -15l-42 30l90 119l39 -27l-52 -68q20 14 41 14q49 0 76 -24.5t27 -69.5z" />
    <glyph glyph-name="ordmasculine" unicode="&#xba;" horiz-adv-x="312" 
d="M303 440q0 -59 -39 -96t-108 -37t-108 37t-39 96v109q0 58 39 95.5t108 37.5t108 -37.5t39 -95.5v-109zM173 428v133q0 25 -17 25t-17 -25v-133q0 -26 17 -26t17 26z" />
    <glyph glyph-name="guillemotright" unicode="&#xbb;" horiz-adv-x="469" 
d="M450 149q-115 -38 -144 -149h-64q0 72 17 117t61 77q-44 32 -61 77t-17 117h64q29 -112 144 -149v-90zM224 149q-115 -38 -144 -149h-64q0 72 17 117t61 77q-44 32 -61 77t-17 117h64q29 -112 144 -149v-90z" />
    <glyph glyph-name="questiondown" unicode="&#xbf;" horiz-adv-x="410" 
d="M159 491h144v-152h-144v152zM-2 -16q0 57 26 101.5t84 90.5q59 47 59 109h126q0 -62 -16 -103.5t-60 -88.5q-45 -48 -45 -90q0 -46 37 -46q38 0 38 53v43h162v-49q0 -86 -52.5 -141t-150.5 -55q-102 0 -155 49t-53 127z" />
    <glyph glyph-name="Agrave" unicode="&#xc0;" 
d="M487 0h-197l-13 93h-90l-16 -93h-181l135 666h230zM261 216l-23 200l-31 -200h54zM293 706h-101l-101 150h159z" />
    <glyph glyph-name="Aacute" unicode="&#xc1;" 
d="M487 0h-197l-13 93h-90l-16 -93h-181l135 666h230zM261 216l-23 200l-31 -200h54zM374 856l-100 -150h-102l43 150h159z" />
    <glyph glyph-name="Acircumflex" unicode="&#xc2;" 
d="M487 0h-197l-13 93h-90l-16 -93h-181l135 666h230zM261 216l-23 200l-31 -200h54zM391 710q-21 -7 -49 -7q-45 0 -71.5 19t-38.5 64q-12 -45 -38.5 -64t-71.5 -19q-22 0 -43 7v41q26 0 49 26t37 75h140q13 -49 36.5 -75t49.5 -26v-41z" />
    <glyph glyph-name="Atilde" unicode="&#xc3;" 
d="M487 0h-197l-13 93h-90l-16 -93h-181l135 666h230zM261 216l-23 200l-31 -200h54zM396 807q0 -41 -22.5 -68t-69.5 -27q-32 0 -73.5 21t-51.5 21q-28 0 -28 -26v-12h-58q-15 20 -15 52q0 41 24 68.5t68 27.5q32 0 74 -21t51 -21q28 0 28 26v12h59q14 -20 14 -53z" />
    <glyph glyph-name="Adieresis" unicode="&#xc4;" 
d="M487 0h-197l-13 93h-90l-16 -93h-181l135 666h230zM261 216l-23 200l-31 -200h54zM372 701h-119v125h119v-125zM219 701h-119v125h119v-125z" />
    <glyph glyph-name="Aring" unicode="&#xc5;" 
d="M487 0h-197l-13 93h-90l-16 -93h-181l135 666h53q-41 28 -41 81q0 41 27.5 70t74.5 29t74 -29t27 -70q0 -54 -41 -81h56zM276 747q0 18 -10 29.5t-27 11.5q-18 0 -28 -11.5t-10 -29.5t10 -29t28 -11q17 0 27 11t10 29zM261 216l-23 200l-31 -200h54z" />
    <glyph glyph-name="AE" unicode="&#xc6;" horiz-adv-x="723" 
d="M708 0h-403v93h-102l-27 -93h-186l220 666h498v-154h-202v-102h129v-141h-129v-107h202v-162zM305 222v230l-68 -230h68z" />
    <glyph glyph-name="Ccedilla" unicode="&#xc7;" horiz-adv-x="502" 
d="M489 191q0 -88 -56 -146.5t-157 -61.5l-39 -51q20 14 41 14q49 0 76 -24.5t27 -69.5q0 -50 -28.5 -78.5t-88.5 -28.5q-26 0 -39 5v52h17q34 0 34 43v6q0 42 -34 42q-20 0 -40 -15l-42 30l59 78q-95 12 -147 71.5t-52 144.5v262q0 96 64.5 157.5t182.5 61.5
q106 0 164 -58.5t58 -149.5v-67h-187v72q0 48 -39 48q-38 0 -38 -48v-294q0 -48 38 -48q39 0 39 48v72h187v-67z" />
    <glyph glyph-name="Egrave" unicode="&#xc8;" horiz-adv-x="442" 
d="M428 0h-403v666h403v-154h-202v-102h129v-141h-129v-107h202v-162zM293 706h-101l-101 150h159z" />
    <glyph glyph-name="Eacute" unicode="&#xc9;" horiz-adv-x="442" 
d="M428 0h-403v666h403v-154h-202v-102h129v-141h-129v-107h202v-162zM366 856l-100 -150h-102l43 150h159z" />
    <glyph glyph-name="Ecircumflex" unicode="&#xca;" horiz-adv-x="442" 
d="M428 0h-403v666h403v-154h-202v-102h129v-141h-129v-107h202v-162zM385 710q-21 -7 -49 -7q-45 0 -71.5 19t-38.5 64q-12 -45 -38.5 -64t-71.5 -19q-22 0 -43 7v41q26 0 49 26t37 75h140q13 -49 36.5 -75t49.5 -26v-41z" />
    <glyph glyph-name="Edieresis" unicode="&#xcb;" horiz-adv-x="442" 
d="M428 0h-403v666h403v-154h-202v-102h129v-141h-129v-107h202v-162zM363 701h-119v125h119v-125zM210 701h-119v125h119v-125z" />
    <glyph glyph-name="Igrave" unicode="&#xcc;" horiz-adv-x="250" 
d="M225 0h-200v666h200v-666zM188 706h-101l-101 150h159z" />
    <glyph glyph-name="Iacute" unicode="&#xcd;" horiz-adv-x="250" 
d="M225 0h-200v666h200v-666zM264 856l-100 -150h-102l43 150h159z" />
    <glyph glyph-name="Icircumflex" unicode="&#xce;" horiz-adv-x="250" 
d="M225 0h-200v666h200v-666zM285 710q-21 -7 -49 -7q-45 0 -71.5 19t-38.5 64q-12 -45 -38.5 -64t-71.5 -19q-22 0 -43 7v41q26 0 49 26t37 75h140q13 -49 36.5 -75t49.5 -26v-41z" />
    <glyph glyph-name="Idieresis" unicode="&#xcf;" horiz-adv-x="250" 
d="M225 0h-200v666h200v-666zM261 701h-119v125h119v-125zM108 701h-119v125h119v-125z" />
    <glyph glyph-name="Eth" unicode="&#xd0;" horiz-adv-x="530" 
d="M41 275h-47v116h47v275h239q117 0 174.5 -60t57.5 -159v-245q0 -202 -232 -202h-239v275zM241 391h40v-116h-40v-122h26q26 0 35.5 14t9.5 44v244q0 30 -9.5 44.5t-35.5 14.5h-26v-123z" />
    <glyph glyph-name="Ntilde" unicode="&#xd1;" horiz-adv-x="529" 
d="M504 0h-166l-93 217l-42 96v-313h-178v666h173l96 -223l33 -78v301h177v-666zM426 807q0 -41 -22.5 -68t-69.5 -27q-32 0 -73.5 21t-51.5 21q-28 0 -28 -26v-12h-58q-15 20 -15 52q0 41 24 68.5t68 27.5q32 0 74 -21t51 -21q28 0 28 26v12h59q14 -20 14 -53z" />
    <glyph glyph-name="Ograve" unicode="&#xd2;" horiz-adv-x="516" 
d="M496 191q0 -89 -65.5 -148.5t-172.5 -59.5t-172.5 59.5t-65.5 148.5v284q0 88 65.5 147.5t172.5 59.5t172.5 -59.5t65.5 -147.5v-284zM291 173v320q0 35 -33 35t-33 -35v-320q0 -35 33 -35t33 35zM317 716h-101l-101 150h159z" />
    <glyph glyph-name="Oacute" unicode="&#xd3;" horiz-adv-x="516" 
d="M496 191q0 -89 -65.5 -148.5t-172.5 -59.5t-172.5 59.5t-65.5 148.5v284q0 88 65.5 147.5t172.5 59.5t172.5 -59.5t65.5 -147.5v-284zM291 173v320q0 35 -33 35t-33 -35v-320q0 -35 33 -35t33 35zM398 866l-100 -150h-102l43 150h159z" />
    <glyph glyph-name="Ocircumflex" unicode="&#xd4;" horiz-adv-x="516" 
d="M496 191q0 -89 -65.5 -148.5t-172.5 -59.5t-172.5 59.5t-65.5 148.5v284q0 88 65.5 147.5t172.5 59.5t172.5 -59.5t65.5 -147.5v-284zM291 173v320q0 35 -33 35t-33 -35v-320q0 -35 33 -35t33 35zM418 716q-21 -7 -49 -7q-45 0 -71.5 19t-38.5 64q-12 -45 -38.5 -64
t-71.5 -19q-22 0 -43 7v41q26 0 49 26t37 75h140q13 -49 36.5 -75t49.5 -26v-41z" />
    <glyph glyph-name="Otilde" unicode="&#xd5;" horiz-adv-x="516" 
d="M496 191q0 -89 -65.5 -148.5t-172.5 -59.5t-172.5 59.5t-65.5 148.5v284q0 88 65.5 147.5t172.5 59.5t172.5 -59.5t65.5 -147.5v-284zM291 173v320q0 35 -33 35t-33 -35v-320q0 -35 33 -35t33 35zM416 812q0 -41 -22.5 -68t-69.5 -27q-32 0 -73.5 21t-51.5 21
q-28 0 -28 -26v-12h-58q-15 19 -15 52q0 41 24 68.5t68 27.5q32 0 74 -21t51 -21q28 0 28 26v12h59q14 -20 14 -53z" />
    <glyph glyph-name="Odieresis" unicode="&#xd6;" horiz-adv-x="516" 
d="M496 191q0 -89 -65.5 -148.5t-172.5 -59.5t-172.5 59.5t-65.5 148.5v284q0 88 65.5 147.5t172.5 59.5t172.5 -59.5t65.5 -147.5v-284zM291 173v320q0 35 -33 35t-33 -35v-320q0 -35 33 -35t33 35zM394 711h-119v125h119v-125zM241 711h-119v125h119v-125z" />
    <glyph glyph-name="multiply" unicode="&#xd7;" horiz-adv-x="444" 
d="M411 227l-83 -83l-107 107l-106 -107l-82 82l106 106l-106 107l83 82l107 -106l106 106l82 -81l-107 -106z" />
    <glyph glyph-name="Oslash" unicode="&#xd8;" horiz-adv-x="516" 
d="M49 86q-29 47 -29 105v284q0 88 65.5 147.5t172.5 59.5q93 0 157 -48l47 70l61 -42q-24 -35 -56 -83q29 -46 29 -104v-284q0 -89 -65.5 -148.5t-172.5 -59.5q-93 0 -158 47l-12 -17l-22 -34l-12 -17l-61 41zM225 350l11 16.5t21.5 32t24.5 35.5l9 14v45q0 35 -33 35
t-33 -35v-143zM291 315l-17 -25l-32 -48l-17 -25v-44q0 -35 33 -35t33 35v142z" />
    <glyph glyph-name="Ugrave" unicode="&#xd9;" horiz-adv-x="512" 
d="M488 183q0 -93 -58 -146.5t-171 -53.5t-174 54.5t-61 145.5v483h203v-485q0 -36 32 -36q33 0 33 36v485h196v-483zM312 706h-101l-101 150h159z" />
    <glyph glyph-name="Uacute" unicode="&#xda;" horiz-adv-x="512" 
d="M488 183q0 -93 -58 -146.5t-171 -53.5t-174 54.5t-61 145.5v483h203v-485q0 -36 32 -36q33 0 33 36v485h196v-483zM402 856l-100 -150h-102l43 150h159z" />
    <glyph glyph-name="Ucircumflex" unicode="&#xdb;" horiz-adv-x="512" 
d="M488 183q0 -93 -58 -146.5t-171 -53.5t-174 54.5t-61 145.5v483h203v-485q0 -36 32 -36q33 0 33 36v485h196v-483zM419 710q-21 -7 -49 -7q-45 0 -71.5 19t-38.5 64q-12 -45 -38.5 -64t-71.5 -19q-22 0 -43 7v41q26 0 49 26t37 75h140q13 -49 36.5 -75t49.5 -26v-41z" />
    <glyph glyph-name="Udieresis" unicode="&#xdc;" horiz-adv-x="512" 
d="M488 183q0 -93 -58 -146.5t-171 -53.5t-174 54.5t-61 145.5v483h203v-485q0 -36 32 -36q33 0 33 36v485h196v-483zM394 701h-119v125h119v-125zM241 701h-119v125h119v-125z" />
    <glyph glyph-name="Yacute" unicode="&#xdd;" horiz-adv-x="504" 
d="M516 666l-167 -416v-250h-200v259l-159 407h210l61 -217l53 217h202zM399 856l-100 -150h-102l43 150h159z" />
    <glyph glyph-name="Thorn" unicode="&#xde;" horiz-adv-x="486" 
d="M476 303q0 -81 -50 -128t-129 -47h-71v-128h-201v666h201v-99h71q79 0 129 -47t50 -128v-89zM287 291v100q0 34 -31 34h-30v-167h30q31 0 31 33z" />
    <glyph glyph-name="germandbls" unicode="&#xdf;" horiz-adv-x="414" 
d="M405 134q0 -77 -37.5 -109.5t-95.5 -32.5q-38 0 -70 13v95q39 0 39 48v111q0 26 -7.5 36.5t-28.5 10.5v97q20 0 28 8.5t8 32.5v59q0 43 -30 43q-31 0 -31 -43v-503h-168v486q0 82 54 131t143 49q96 0 146 -47.5t50 -119.5v-15q0 -46 -21 -82.5t-63 -50.5q50 -15 67 -42.5
t17 -77.5v-97z" />
    <glyph glyph-name="agrave" unicode="&#xe0;" horiz-adv-x="408" 
d="M403 -4h-52q-42 0 -64 15.5t-35 52.5q-35 -72 -119 -72q-61 0 -95 34.5t-34 97.5v5q0 65 49.5 101t161.5 64v60q0 29 -21 29q-13 0 -16 -14t-3 -53h-154q-5 184 182 184q88 0 134 -44.5t46 -116.5v-202q0 -14 4 -19.5t16 -5.5v-116zM215 126v96q-47 -14 -47 -66v-24
q0 -38 23 -38q24 0 24 32zM268 536h-101l-101 150h159z" />
    <glyph glyph-name="aacute" unicode="&#xe1;" horiz-adv-x="408" 
d="M403 -4h-52q-42 0 -64 15.5t-35 52.5q-35 -72 -119 -72q-61 0 -95 34.5t-34 97.5v5q0 65 49.5 101t161.5 64v60q0 29 -21 29q-13 0 -16 -14t-3 -53h-154q-5 184 182 184q88 0 134 -44.5t46 -116.5v-202q0 -14 4 -19.5t16 -5.5v-116zM215 126v96q-47 -14 -47 -66v-24
q0 -38 23 -38q24 0 24 32zM338 686l-100 -150h-102l43 150h159z" />
    <glyph glyph-name="acircumflex" unicode="&#xe2;" horiz-adv-x="408" 
d="M403 -4h-52q-42 0 -64 15.5t-35 52.5q-35 -72 -119 -72q-61 0 -95 34.5t-34 97.5v5q0 65 49.5 101t161.5 64v60q0 29 -21 29q-13 0 -16 -14t-3 -53h-154q-5 184 182 184q88 0 134 -44.5t46 -116.5v-202q0 -14 4 -19.5t16 -5.5v-116zM215 126v96q-47 -14 -47 -66v-24
q0 -38 23 -38q24 0 24 32zM357 531q-21 -7 -49 -7q-45 0 -71.5 19t-38.5 64q-12 -45 -38.5 -64t-71.5 -19q-22 0 -43 7v41q26 0 49 26t37 75h140q13 -49 36.5 -75t49.5 -26v-41z" />
    <glyph glyph-name="atilde" unicode="&#xe3;" horiz-adv-x="408" 
d="M403 -4h-52q-42 0 -64 15.5t-35 52.5q-35 -72 -119 -72q-61 0 -95 34.5t-34 97.5v5q0 65 49.5 101t161.5 64v60q0 29 -21 29q-13 0 -16 -14t-3 -53h-154q-5 184 182 184q88 0 134 -44.5t46 -116.5v-202q0 -14 4 -19.5t16 -5.5v-116zM215 126v96q-47 -14 -47 -66v-24
q0 -38 23 -38q24 0 24 32zM362 637q0 -41 -22.5 -68t-69.5 -27q-32 0 -73.5 21t-51.5 21q-28 0 -28 -26v-12h-58q-15 20 -15 52q0 41 24 68.5t68 27.5q32 0 74 -21t51 -21q28 0 28 26v12h59q14 -20 14 -53z" />
    <glyph glyph-name="adieresis" unicode="&#xe4;" horiz-adv-x="408" 
d="M403 -4h-52q-42 0 -64 15.5t-35 52.5q-35 -72 -119 -72q-61 0 -95 34.5t-34 97.5v5q0 65 49.5 101t161.5 64v60q0 29 -21 29q-13 0 -16 -14t-3 -53h-154q-5 184 182 184q88 0 134 -44.5t46 -116.5v-202q0 -14 4 -19.5t16 -5.5v-116zM215 126v96q-47 -14 -47 -66v-24
q0 -38 23 -38q24 0 24 32zM338 531h-119v125h119v-125zM185 531h-119v125h119v-125z" />
    <glyph glyph-name="aring" unicode="&#xe5;" horiz-adv-x="408" 
d="M403 -4h-52q-42 0 -64 15.5t-35 52.5q-35 -72 -119 -72q-61 0 -95 34.5t-34 97.5v5q0 65 49.5 101t161.5 64v60q0 29 -21 29q-13 0 -16 -14t-3 -53h-154q-5 184 182 184q88 0 134 -44.5t46 -116.5v-202q0 -14 4 -19.5t16 -5.5v-116zM215 126v96q-47 -14 -47 -66v-24
q0 -38 23 -38q24 0 24 32zM309 627q0 -41 -27 -69.5t-74 -28.5t-74.5 28.5t-27.5 69.5t27.5 70t74.5 29t74 -29t27 -70zM245 627q0 18 -10 29.5t-27 11.5q-18 0 -28 -11.5t-10 -29.5t10 -29t28 -11q17 0 27 11t10 29z" />
    <glyph glyph-name="ae" unicode="&#xe6;" horiz-adv-x="638" 
d="M625 182q0 -191 -184 -191q-39 0 -76.5 16.5t-56.5 42.5q-52 -59 -142 -59q-73 0 -117.5 36t-44.5 96v5q0 65 49.5 101t161.5 64v60q0 29 -21 29q-13 0 -16 -14t-3 -53h-154q-2 88 41 136t124 48q87 0 131 -57q44 57 124 57q86 0 135 -48.5t49 -122.5v-105h-210v-77
q0 -12 1.5 -19t7.5 -12t17 -5q18 0 23 13t5 59h156zM463 293v51q0 35 -24 35t-24 -35v-51h48zM215 125v96q-47 -14 -47 -66v-24q0 -38 23 -38q24 0 24 32z" />
    <glyph glyph-name="ccedilla" unicode="&#xe7;" horiz-adv-x="400" 
d="M385 201q2 -102 -37 -152.5t-124 -55.5l-46 -61q20 14 41 14q49 0 76 -24.5t27 -69.5q0 -50 -28.5 -78.5t-88.5 -28.5q-26 0 -39 5v52h17q34 0 34 43v6q0 42 -34 42q-21 0 -40 -15l-42 30l65 87q-70 10 -109 55t-39 112v167q0 77 49.5 124t136.5 47q95 0 139 -51.5
t42 -157.5h-150v50q0 39 -26 39q-15 0 -21 -8t-6 -30v-193q0 -21 6 -29.5t21 -8.5q26 0 26 40v50h150z" />
    <glyph glyph-name="egrave" unicode="&#xe8;" horiz-adv-x="406" 
d="M392 183q0 -191 -187 -191q-86 0 -136.5 48.5t-50.5 121.5v167q0 73 50.5 121.5t136.5 48.5t136.5 -48.5t50.5 -121.5v-105h-211v-77q0 -12 1.5 -19t7.5 -12t17 -5q18 0 23 13t5 59h157zM229 294v51q0 35 -24 35t-24 -35v-51h48zM259 536h-101l-101 150h159z" />
    <glyph glyph-name="eacute" unicode="&#xe9;" horiz-adv-x="406" 
d="M392 183q0 -191 -187 -191q-86 0 -136.5 48.5t-50.5 121.5v167q0 73 50.5 121.5t136.5 48.5t136.5 -48.5t50.5 -121.5v-105h-211v-77q0 -12 1.5 -19t7.5 -12t17 -5q18 0 23 13t5 59h157zM229 294v51q0 35 -24 35t-24 -35v-51h48zM352 686l-100 -150h-102l43 150h159z" />
    <glyph glyph-name="ecircumflex" unicode="&#xea;" horiz-adv-x="406" 
d="M392 183q0 -191 -187 -191q-86 0 -136.5 48.5t-50.5 121.5v167q0 73 50.5 121.5t136.5 48.5t136.5 -48.5t50.5 -121.5v-105h-211v-77q0 -12 1.5 -19t7.5 -12t17 -5q18 0 23 13t5 59h157zM229 294v51q0 35 -24 35t-24 -35v-51h48zM363 531q-21 -7 -49 -7q-45 0 -71.5 19
t-38.5 64q-12 -45 -38.5 -64t-71.5 -19q-22 0 -43 7v41q26 0 49 26t37 75h140q13 -49 36.5 -75t49.5 -26v-41z" />
    <glyph glyph-name="edieresis" unicode="&#xeb;" horiz-adv-x="406" 
d="M392 183q0 -191 -187 -191q-86 0 -136.5 48.5t-50.5 121.5v167q0 73 50.5 121.5t136.5 48.5t136.5 -48.5t50.5 -121.5v-105h-211v-77q0 -12 1.5 -19t7.5 -12t17 -5q18 0 23 13t5 59h157zM229 294v51q0 35 -24 35t-24 -35v-51h48zM341 531h-119v125h119v-125zM188 531
h-119v125h119v-125z" />
    <glyph glyph-name="igrave" unicode="&#xec;" horiz-adv-x="213" 
d="M191 0h-169v491h169v-491zM165 536h-101l-101 150h159z" />
    <glyph glyph-name="iacute" unicode="&#xed;" horiz-adv-x="213" 
d="M191 0h-169v491h169v-491zM252 686l-100 -150h-102l43 150h159z" />
    <glyph glyph-name="icircumflex" unicode="&#xee;" horiz-adv-x="213" 
d="M191 0h-169v491h169v-491zM265 531q-21 -7 -49 -7q-45 0 -71.5 19t-38.5 64q-12 -45 -38.5 -64t-71.5 -19q-22 0 -43 7v41q26 0 49 26t37 75h140q13 -49 36.5 -75t49.5 -26v-41z" />
    <glyph glyph-name="idieresis" unicode="&#xef;" horiz-adv-x="213" 
d="M191 0h-169v491h169v-491zM243 531h-119v125h119v-125zM90 531h-119v125h119v-125z" />
    <glyph glyph-name="eth" unicode="&#xf0;" horiz-adv-x="415" 
d="M397 161q0 -76 -57 -122.5t-135 -46.5q-82 0 -134.5 45.5t-52.5 123.5v175q0 65 35.5 105t89.5 40q53 0 94 -39q0 50 -23 98l-49 -23l-29 51l45 22q-24 30 -59 56l137 20q18 -9 35 -23l50 24l29 -51l-37 -18q61 -85 61 -212v-225zM229 147v190q0 36 -24 36q-23 0 -23 -36
v-190q0 -36 23 -36q24 0 24 36z" />
    <glyph glyph-name="ntilde" unicode="&#xf1;" horiz-adv-x="428" 
d="M408 0h-168v337q0 36 -23 36q-26 0 -26 -36v-337h-169v491h145l6 -64q40 72 119 72q52 0 84 -33t32 -87v-379zM370 637q0 -41 -22.5 -68t-69.5 -27q-32 0 -73.5 21t-51.5 21q-28 0 -28 -26v-12h-58q-15 20 -15 52q0 41 24 68.5t68 27.5q32 0 74 -21t51 -21q28 0 28 26v12
h59q14 -20 14 -53z" />
    <glyph glyph-name="ograve" unicode="&#xf2;" horiz-adv-x="411" 
d="M393 162q0 -73 -51 -121.5t-137 -48.5t-136.5 48.5t-50.5 121.5v167q0 73 50.5 121.5t136.5 48.5t137 -48.5t51 -121.5v-167zM229 146v199q0 35 -24 35t-24 -35v-199q0 -35 24 -35t24 35zM261 536h-101l-101 150h159z" />
    <glyph glyph-name="oacute" unicode="&#xf3;" horiz-adv-x="411" 
d="M393 162q0 -73 -51 -121.5t-137 -48.5t-136.5 48.5t-50.5 121.5v167q0 73 50.5 121.5t136.5 48.5t137 -48.5t51 -121.5v-167zM229 146v199q0 35 -24 35t-24 -35v-199q0 -35 24 -35t24 35zM348 686l-100 -150h-102l43 150h159z" />
    <glyph glyph-name="ocircumflex" unicode="&#xf4;" horiz-adv-x="411" 
d="M393 162q0 -73 -51 -121.5t-137 -48.5t-136.5 48.5t-50.5 121.5v167q0 73 50.5 121.5t136.5 48.5t137 -48.5t51 -121.5v-167zM229 146v199q0 35 -24 35t-24 -35v-199q0 -35 24 -35t24 35zM364 531q-21 -7 -49 -7q-45 0 -71.5 19t-38.5 64q-12 -45 -38.5 -64t-71.5 -19
q-22 0 -43 7v41q26 0 49 26t37 75h140q13 -49 36.5 -75t49.5 -26v-41z" />
    <glyph glyph-name="otilde" unicode="&#xf5;" horiz-adv-x="411" 
d="M393 162q0 -73 -51 -121.5t-137 -48.5t-136.5 48.5t-50.5 121.5v167q0 73 50.5 121.5t136.5 48.5t137 -48.5t51 -121.5v-167zM229 146v199q0 35 -24 35t-24 -35v-199q0 -35 24 -35t24 35zM366 637q0 -41 -22.5 -68t-69.5 -27q-32 0 -73.5 21t-51.5 21q-28 0 -28 -26v-12
h-58q-15 20 -15 52q0 41 24 68.5t68 27.5q32 0 74 -21t51 -21q28 0 28 26v12h59q14 -20 14 -53z" />
    <glyph glyph-name="odieresis" unicode="&#xf6;" horiz-adv-x="411" 
d="M393 162q0 -73 -51 -121.5t-137 -48.5t-136.5 48.5t-50.5 121.5v167q0 73 50.5 121.5t136.5 48.5t137 -48.5t51 -121.5v-167zM229 146v199q0 35 -24 35t-24 -35v-199q0 -35 24 -35t24 35zM341 531h-119v125h119v-125zM188 531h-119v125h119v-125z" />
    <glyph glyph-name="oslash" unicode="&#xf8;" horiz-adv-x="411" 
d="M49 62q-31 43 -31 100v167q0 73 52 121.5t138 48.5q62 0 107 -28l38 58l50 -35l-42 -65q32 -43 32 -100v-167q0 -73 -51 -121.5t-137 -48.5q-65 0 -110 28l-37 -57l-50 35zM181 264l48 74v7q0 35 -24 35t-24 -35v-81zM229 226l-48 -74v-6q0 -35 24 -35t24 35v80z" />
    <glyph glyph-name="ugrave" unicode="&#xf9;" horiz-adv-x="431" 
d="M408 0h-145l-6 64q-40 -72 -119 -72q-52 0 -84 33t-32 87v379h168v-338q0 -36 24 -36q25 0 25 36v338h169v-491zM266 536h-101l-101 150h159z" />
    <glyph glyph-name="uacute" unicode="&#xfa;" horiz-adv-x="431" 
d="M408 0h-145l-6 64q-40 -72 -119 -72q-52 0 -84 33t-32 87v379h168v-338q0 -36 24 -36q25 0 25 36v338h169v-491zM348 686l-100 -150h-102l43 150h159z" />
    <glyph glyph-name="ucircumflex" unicode="&#xfb;" horiz-adv-x="431" 
d="M408 0h-145l-6 64q-40 -72 -119 -72q-52 0 -84 33t-32 87v379h168v-338q0 -36 24 -36q25 0 25 36v338h169v-491zM372 531q-21 -7 -49 -7q-45 0 -71.5 19t-38.5 64q-12 -45 -38.5 -64t-71.5 -19q-22 0 -43 7v41q26 0 49 26t37 75h140q13 -49 36.5 -75t49.5 -26v-41z" />
    <glyph glyph-name="udieresis" unicode="&#xfc;" horiz-adv-x="431" 
d="M408 0h-145l-6 64q-40 -72 -119 -72q-52 0 -84 33t-32 87v379h168v-338q0 -36 24 -36q25 0 25 36v338h169v-491zM351 531h-119v125h119v-125zM198 531h-119v125h119v-125z" />
    <glyph glyph-name="yacute" unicode="&#xfd;" horiz-adv-x="414" 
d="M411 491l-115 -451q-28 -108 -70.5 -149t-127.5 -41h-66v132h21q32 0 44 7t17 29l1 4l-120 469h171l31 -205l11 -81l10 81l30 205h163zM344 686l-100 -150h-102l43 150h159z" />
    <glyph glyph-name="thorn" unicode="&#xfe;" horiz-adv-x="419" 
d="M401 127q0 -65 -31 -100.5t-86 -35.5t-94 35v-173h-168v813h168v-203q38 37 91 37t86.5 -39t33.5 -99v-235zM237 153v184q0 36 -24 36q-23 0 -23 -36v-184q0 -36 23 -36q24 0 24 36z" />
    <glyph glyph-name="ydieresis" unicode="&#xff;" horiz-adv-x="414" 
d="M411 491l-115 -451q-28 -108 -70.5 -149t-127.5 -41h-66v132h21q32 0 44 7t17 29l1 4l-120 469h171l31 -205l11 -81l10 81l30 205h163zM341 531h-119v125h119v-125zM188 531h-119v125h119v-125z" />
    <glyph glyph-name="dotlessi" unicode="&#x131;" horiz-adv-x="213" 
d="M191 0h-169v491h169v-491z" />
    <glyph glyph-name="Lslash" unicode="&#x141;" horiz-adv-x="457" 
d="M265 315v-154h191v-161h-391v228l-44 -19l-35 85l79 34v338h200v-251l50 22l34 -85z" />
    <glyph glyph-name="lslash" unicode="&#x142;" horiz-adv-x="273" 
d="M309 411l-88 -66v-345h-169v217l-30 -23l-49 77l79 60v335h169v-207l39 29z" />
    <glyph glyph-name="OE" unicode="&#x152;" horiz-adv-x="713" 
d="M698 0h-441q-232 0 -232 202v245q0 99 57.5 159t174.5 60h441v-154h-202v-102h130v-141h-130v-107h202v-162zM296 153v361h-26q-26 0 -35.5 -14.5t-9.5 -44.5v-244q0 -30 9.5 -44t35.5 -14h26z" />
    <glyph glyph-name="oe" unicode="&#x153;" horiz-adv-x="652" 
d="M639 183q0 -191 -184 -191q-39 0 -73 16t-53 43q-19 -27 -53 -43t-72 -16q-86 0 -136 48.5t-50 121.5v166q0 73 50 122t136 49q83 0 126 -59q19 26 53 42.5t72 16.5q86 0 135 -48.5t49 -122.5v-104h-210v-77q0 -12 1.5 -19t7.5 -12t17 -5q18 0 23 13t5 59h156zM477 294
v51q0 35 -24 35t-24 -35v-51h48zM229 146v199q0 35 -24 35q-23 0 -23 -35v-199q0 -35 23 -35q24 0 24 35z" />
    <glyph glyph-name="Scaron" unicode="&#x160;" horiz-adv-x="472" 
d="M462 189q0 -87 -55 -146.5t-165 -59.5q-129 0 -184.5 57.5t-49.5 179.5h179q-4 -91 47 -91q42 0 42 42q0 24 -26.5 47.5t-63.5 45.5t-74.5 48.5t-64 69.5t-26.5 95q0 90 56.5 147.5t169.5 57.5q62 0 106.5 -19.5t67.5 -53.5t32 -72.5t7 -82.5h-178q2 42 -6.5 62t-32.5 20
q-36 0 -36 -42q0 -24 26.5 -46t63.5 -43t74.5 -47t64 -70t26.5 -99zM399 821q-26 0 -49.5 -26t-36.5 -74h-140q-14 48 -37 74t-49 26v42q21 7 49 7q45 0 71.5 -19t38.5 -64q20 83 110 83q22 0 43 -7v-42z" />
    <glyph glyph-name="scaron" unicode="&#x161;" horiz-adv-x="383" 
d="M374 141q0 -60 -45.5 -104.5t-135.5 -44.5q-99 0 -143.5 43t-42.5 126h148q0 -34 7.5 -47t25.5 -13q30 0 30 29q0 15 -15.5 28t-38 22t-49.5 23.5t-49.5 31t-38 46.5t-15.5 69q0 69 49 109.5t132 40.5q186 0 180 -168h-148q0 32 -6 44t-23 12q-26 0 -26 -26q0 -18 21 -33
t51 -29t60 -32t51 -50.5t21 -76.5zM350 641q-26 0 -49.5 -26t-36.5 -74h-140q-14 48 -37 74t-49 26v42q21 7 49 7q45 0 71.5 -19t38.5 -64q20 83 110 83q22 0 43 -7v-42z" />
    <glyph glyph-name="Ydieresis" unicode="&#x178;" horiz-adv-x="504" 
d="M516 666l-167 -416v-250h-200v259l-159 407h210l61 -217l53 217h202zM393 701h-119v125h119v-125zM240 701h-119v125h119v-125z" />
    <glyph glyph-name="Zcaron" unicode="&#x17d;" horiz-adv-x="456" 
d="M451 617l-216 -451h208v-166h-445v49l220 456h-206v161h439v-49zM391 811q-26 0 -49.5 -26t-36.5 -74h-140q-14 48 -37 74t-49 26v42q21 7 49 7q45 0 71.5 -19t38.5 -64q20 83 110 83q22 0 43 -7v-42z" />
    <glyph glyph-name="zcaron" unicode="&#x17e;" horiz-adv-x="353" 
d="M352 431l-154 -296h148v-135h-346v60l156 296h-147v135h343v-60zM339 641q-26 0 -49.5 -26t-36.5 -74h-140q-14 48 -37 74t-49 26v42q21 7 49 7q45 0 71.5 -19t38.5 -64q20 83 110 83q22 0 43 -7v-42z" />
    <glyph glyph-name="florin" unicode="&#x192;" horiz-adv-x="375" 
d="M271 403h80v-108h-80v-117q0 -95 -47 -145t-152 -50h-40v118h13q53 0 53 67v127h-80v108h80v69q0 95 47 144.5t152 49.5h40v-118h-13q-53 0 -53 -66v-79z" />
    <glyph glyph-name="circumflex" unicode="&#x2c6;" horiz-adv-x="324" 
d="M318 546q-21 -7 -49 -7q-45 0 -71.5 19t-38.5 64q-12 -45 -38.5 -64t-71.5 -19q-22 0 -43 7v41q26 0 49 26t37 75h140q13 -49 36.5 -75t49.5 -26v-41z" />
    <glyph glyph-name="caron" unicode="&#x2c7;" horiz-adv-x="324" 
d="M318 651q-26 0 -49.5 -26t-36.5 -74h-140q-14 48 -37 74t-49 26v42q21 7 49 7q45 0 71.5 -19t38.5 -64q20 83 110 83q22 0 43 -7v-42z" />
    <glyph glyph-name="breve" unicode="&#x2d8;" horiz-adv-x="274" 
d="M271 650q0 -41 -34 -70t-100 -29q-65 0 -99.5 29t-34.5 70q0 28 11 48h66v-11q0 -41 57 -41q58 0 58 41v11h65q11 -20 11 -48z" />
    <glyph glyph-name="dotaccent" unicode="&#x2d9;" horiz-adv-x="272" 
d="M196 541h-119v125h119v-125z" />
    <glyph glyph-name="ring" unicode="&#x2da;" horiz-adv-x="206" 
d="M207 637q0 -41 -27 -69.5t-74 -28.5t-74.5 28.5t-27.5 69.5t27.5 70t74.5 29t74 -29t27 -70zM143 637q0 18 -10 29.5t-27 11.5q-18 0 -28 -11.5t-10 -29.5t10 -29t28 -11q17 0 27 11t10 29z" />
    <glyph glyph-name="ogonek" unicode="&#x2db;" horiz-adv-x="217" 
d="M217 -188q-17 -14 -69 -14q-66 0 -101 26t-35 69q0 100 173 143l10 -20q-70 -39 -70 -95q0 -28 15.5 -42.5t54.5 -14.5h22v-52z" />
    <glyph glyph-name="tilde" unicode="&#x2dc;" horiz-adv-x="327" 
d="M323 647q0 -41 -22.5 -68t-69.5 -27q-32 0 -73.5 21t-51.5 21q-28 0 -28 -26v-12h-58q-15 20 -15 52q0 41 24 68.5t68 27.5q32 0 74 -21t51 -21q28 0 28 26v12h59q14 -20 14 -53z" />
    <glyph glyph-name="hungarumlaut" unicode="&#x2dd;" horiz-adv-x="294" 
d="M320 689l-105 -150h-86l76 150h115zM170 689l-82 -150h-84l53 150h113z" />
    <glyph glyph-name="Omega" unicode="&#x3a9;" horiz-adv-x="592" 
d="M592 364h-76v-364h-169v364h-107v-364h-169v364h-63v121h63v10q0 84 43.5 127.5t149.5 43.5h47v-118h-13q-34 0 -47 -12.5t-13 -40.5v-10h109v10q0 84 43.5 127.5t149.5 43.5h47v-118h-13q-34 0 -47 -12.5t-13 -40.5v-10h78v-121z" />
    <glyph glyph-name="pi" unicode="&#x3c0;" horiz-adv-x="729" 
d="M714 333q0 -146 -100 -248t-249 -102t-249.5 102t-100.5 248t100.5 248t249.5 102t249 -102t100 -248zM659 333q0 127 -83 214t-211 87q-129 0 -212 -87t-83 -214q0 -126 83 -213t212 -87t211.5 86.5t82.5 213.5zM518 373q0 -41 -28 -66t-74 -25h-60v-121h-110v349h170
q46 0 74 -25t28 -66v-46zM413 368v43q0 21 -24 21h-33v-85h33q24 0 24 21z" />
    <glyph glyph-name="endash" unicode="&#x2013;" horiz-adv-x="480" 
d="M428 224h-375v130h375v-130z" />
    <glyph glyph-name="emdash" unicode="&#x2014;" horiz-adv-x="730" 
d="M678 224h-625v130h625v-130z" />
    <glyph glyph-name="quoteleft" unicode="&#x2018;" horiz-adv-x="184" 
d="M20 523q0 146 146 146v-40q-59 0 -59 -71h59v-160h-146v125z" />
    <glyph glyph-name="quoteright" unicode="&#x2019;" horiz-adv-x="184" 
d="M165 541q0 -146 -146 -146v40q59 0 59 71h-59v160h146v-125z" />
    <glyph glyph-name="quotesinglbase" unicode="&#x201a;" horiz-adv-x="184" 
d="M165 35q0 -146 -146 -146v40q59 0 59 71h-59v160h146v-125z" />
    <glyph glyph-name="quotedblleft" unicode="&#x201c;" horiz-adv-x="354" 
d="M190 523q0 146 146 146v-40q-59 0 -59 -71h59v-160h-146v125zM20 523q0 146 146 146v-40q-59 0 -59 -71h59v-160h-146v125z" />
    <glyph glyph-name="quotedblright" unicode="&#x201d;" horiz-adv-x="354" 
d="M335 541q0 -146 -146 -146v40q59 0 59 71h-59v160h146v-125zM165 541q0 -146 -146 -146v40q59 0 59 71h-59v160h146v-125z" />
    <glyph glyph-name="quotedblbase" unicode="&#x201e;" horiz-adv-x="354" 
d="M335 35q0 -146 -146 -146v40q59 0 59 71h-59v160h146v-125zM165 35q0 -146 -146 -146v40q59 0 59 71h-59v160h146v-125z" />
    <glyph glyph-name="dagger" unicode="&#x2020;" horiz-adv-x="399" 
d="M402 406q0 -17 -19 -17q-22 0 -73.5 5t-76.5 12q7 -22 13.5 -72t6.5 -85q0 -151 -17 -302q-2 -19 -17 -19h-38q-15 0 -17 19q-18 160 -18 302q0 35 6.5 84.5t14.5 72.5q-25 -7 -76.5 -12t-73.5 -5q-20 0 -20 17v65q0 17 20 17q86 0 150 -16q-7 24 -12 87t-5 87
q0 20 17 20h66q7 0 12 -5.5t5 -14.5q0 -24 -5 -87t-12 -87q64 16 150 16q19 0 19 -17v-65z" />
    <glyph glyph-name="daggerdbl" unicode="&#x2021;" horiz-adv-x="399" 
d="M402 122q0 -17 -19 -17q-82 0 -150 17q7 -24 12 -87.5t5 -87.5q0 -19 -17 -19h-66q-17 0 -17 19q0 24 5 87.5t12 87.5q-68 -17 -150 -17q-9 0 -14.5 5t-5.5 12v66q0 17 20 17q21 0 71 -5t75 -12q-13 50 -13 109q0 57 13 109q-25 -7 -75 -12t-71 -5q-20 0 -20 17v65
q0 17 20 17q86 0 150 -16q-7 24 -12 87t-5 87q0 20 17 20h66q7 0 12 -5.5t5 -14.5q0 -24 -5 -87t-12 -87q64 16 150 16q19 0 19 -17v-65q0 -17 -19 -17q-21 0 -71 5t-76 12q14 -50 14 -109q0 -61 -14 -109q26 7 76 12t71 5q19 0 19 -17v-66z" />
    <glyph glyph-name="bullet" unicode="&#x2022;" horiz-adv-x="335" 
d="M310 333q0 -67 -40.5 -105.5t-102.5 -38.5q-63 0 -103.5 38.5t-40.5 105.5q0 66 40.5 105t103.5 39q62 0 102.5 -39t40.5 -105z" />
    <glyph glyph-name="ellipsis" unicode="&#x2026;" horiz-adv-x="544" 
d="M525 0h-146v160h146v-160zM345 0h-146v160h146v-160zM165 0h-146v160h146v-160z" />
    <glyph glyph-name="perthousand" unicode="&#x2030;" horiz-adv-x="951" 
d="M285 455q0 -55 -36 -91.5t-98 -36.5t-98 36.5t-36 91.5v98q0 56 36 93t98 37t98 -37t36 -93v-98zM578 648l-451 -675l-58 45l454 675zM936 112q0 -55 -36 -92t-98 -37t-98 37t-36 92v98q0 56 35.5 92.5t98.5 36.5t98.5 -36.5t35.5 -92.5v-98zM637 112q0 -55 -36 -92
t-98 -37t-98 37t-36 92v98q0 56 35.5 92.5t98.5 36.5t98.5 -36.5t35.5 -92.5v-98zM174 440v129q0 10 -6.5 17t-16.5 7q-11 0 -17.5 -6.5t-6.5 -17.5v-129q0 -10 6.5 -17t17.5 -7q10 0 16.5 7t6.5 17zM825 97v129q0 24 -23 24t-23 -24v-129q0 -24 23 -24t23 24zM526 97v129
q0 24 -23 24t-23 -24v-129q0 -24 23 -24t23 24z" />
    <glyph glyph-name="guilsinglleft" unicode="&#x2039;" horiz-adv-x="242" 
d="M224 0h-64q-29 111 -144 149v90q115 37 144 149h64q0 -72 -17 -117t-61 -77q44 -32 61 -77t17 -117z" />
    <glyph glyph-name="guilsinglright" unicode="&#x203a;" horiz-adv-x="242" 
d="M226 149q-115 -38 -144 -149h-64q0 72 17 117t61 77q-44 32 -61 77t-17 117h64q29 -112 144 -149v-90z" />
    <glyph glyph-name="fraction" unicode="&#x2044;" horiz-adv-x="80" 
d="M320 703l-497 -782l-59 42l496 782z" />
    <glyph glyph-name="trademark" unicode="&#x2122;" horiz-adv-x="416" 
d="M379 441h-45v160l-11 -51l-27 -109h-36l-26 109l-11 51v-160h-43v225h65l27 -114l8 -40l8 40l27 114h64v-225zM156 625h-49v-184h-48v184h-49v41h146v-41z" />
    <glyph glyph-name="product" unicode="&#x220f;" horiz-adv-x="492" 
d="M296 0l-52 245h-18v-245h-201v666h269q80 0 131 -42t51 -110v-125q0 -68 -61 -95l74 -294h-193zM226 370h29q30 0 30 33v88q0 33 -30 33h-29v-154z" />
    <glyph glyph-name="radical" unicode="&#x221a;" horiz-adv-x="805" 
d="M783 0h-169v666h169v-666zM592 364h-76v-364h-169v364h-107v-364h-169v364h-63v121h63v10q0 84 43.5 127.5t149.5 43.5h47v-118h-13q-34 0 -47 -12.5t-13 -40.5v-10h109v10q0 84 43.5 127.5t149.5 43.5h47v-118h-13q-34 0 -47 -12.5t-13 -40.5v-10h78v-121z" />
    <glyph glyph-name="approxequal" unicode="&#x2248;" horiz-adv-x="805" 
d="M783 524h-169v142h169v-142zM592 364h-76v-364h-169v364h-107v-364h-169v364h-63v121h63v10q0 84 43.5 127.5t149.5 43.5h47v-118h-13q-34 0 -47 -12.5t-13 -40.5v-10h109v10q0 84 43.5 127.5t149.5 43.5h47v-118h-13q-34 0 -47 -12.5t-13 -40.5v-10h78v-121zM783 0h-169
v491h169v-491z" />
    <glyph glyph-name="notequal" unicode="&#x2260;" horiz-adv-x="494" 
d="M470 0h-446v472h446v-472z" />
    <glyph glyph-name="lessequal" unicode="&#x2264;" horiz-adv-x="360" 
d="M322 79l-301 160v13l301 160v-333z" />
    <glyph glyph-name="greaterequal" unicode="&#x2265;" horiz-adv-x="360" 
d="M339 239l-301 -160v333l301 -160v-13z" />
    <glyph glyph-name="apple" unicode="&#xf8ff;" horiz-adv-x="967" 
d="M868 0h-767v750h767v-750zM859 -104h-6l-3 20l-10 -21h-2l-10 21l-3 -20h-6l6 34h1l13 -26l13 26h1zM806 -87q0 -18 -17 -18q-7 0 -12 5t-5 12q0 18 18 18q7 0 11.5 -5t4.5 -12zM758 -96l-1 -6q-3 -3 -10 -3q-18 0 -18 17q0 8 5.5 13t12.5 5t11 -3l-2 -5q-3 3 -9 3
q-12 0 -12 -12q0 -13 13 -13q4 0 10 4zM702 -71l-13 -19v-14h-6v14l-14 19l6 1l11 -15l9 14h7zM656 -104h-6v15h-16v-15h-6v33h6v-13h16v13h6v-33zM612 -82q0 -12 -17 -12v-10h-6v33q23 3 23 -11zM576 -104h-6l-4 8h-14l-3 -8h-6l15 34h2zM534 -104h-7l-8 11h-5v-11h-6v33
q23 3 23 -10q0 -7 -7 -10zM491 -101q-6 -4 -13 -4q-18 0 -18 17q0 8 5.5 13t13.5 5q6 0 12 -4l-2 -5q-4 4 -11 4q-12 0 -12 -13q0 -12 13 -12q2 0 6 2v7h-9v5h15v-15zM447 -87q0 -18 -17 -18q-7 0 -12 5t-5 12q0 18 18 18q7 0 11.5 -5t4.5 -12zM400 -82q0 -12 -17 -12v-10
h-6v33q23 3 23 -11zM364 -71l-13 -19v-14h-6v14l-14 19l6 1l11 -15l9 14h7zM323 -71v-5h-12v-28h-6v28h-12v5h30zM267 -71l-12 -34h-1l-11 23l-10 -23h-1l-12 34l6 1l7 -23l10 23h1l10 -23l7 22h6zM211 -71l-12 -34h-1l-11 23l-10 -23h-1l-12 34l6 1l7 -23l10 23h1l10 -23
l7 22h6zM155 -71l-12 -34h-1l-11 23l-10 -23h-1l-12 34l6 1l7 -23l10 23h1l10 -23l7 22h6zM716 -101q0 -4 -4 -4t-4 4t4 4t4 -4zM284 -101q0 -4 -4 -4t-4 4t4 4t4 -4zM559 686q0 8 -1 12q-2 -1 -17 -1t-18 1l-1 -12h2q4 9 10 9q3 0 3 -3v-23q-1 -5 -5 -5v-2h17v2l-4 2
q-1 1 -1 3v23q0 3 3 3t5.5 -2.5t3.5 -4.5l1 -2h2zM504 662v2q-6 -1 -6 5v21l6 5v2h-18v-1v-1l4 -2q1 -1 1 -3v-9h-17v9q1 5 5 5v1v1h-17v-2l4 -2q1 -1 1 -3v-21l-5 -5v-2h17v2q-5 0 -5 5v10h17v-10q-1 -5 -5 -5v-2h18zM439 664l-4 2q-1 1 -1 3v21q1 5 5 5v2h-29l-2 -10l2 -1
q3 8 9 8h4q4 0 4 -3v-10h-4l-6 5h-2v-13h2q0 6 6 6h4v-11q0 -3 -4 -3h-4q-3 0 -5.5 2.5t-3.5 4.5l-1 2l-2 -1l2 -11h30v2zM827 618v6h-685v-6h685zM696 540q0 15 -11.5 26.5t-25.5 11.5q-8 0 -15.5 -5.5t-7.5 -16.5q0 -16 11 -27t26 -11q8 0 15.5 5.5t7.5 16.5zM589 537
q0 12 -14 17q5 3 5 9q0 15 -21 15q-13 0 -13 -11q0 -6 5 -6q4 0 4 3q0 2 -1.5 3.5t-1.5 2.5q0 5 7 5q10 0 10 -12q0 -4 -2 -6q-16 2 -16 -6q0 -6 8 -6q6 0 11 5q6 -4 6 -15q0 -14 -12 -14t-12 9q0 3 3 3l1 -1q2 -1 4 -1q4 0 4 5t-7 5q-9 0 -9 -10q0 -13 16 -13q25 0 25 19z
M295 537q0 12 -14 17q5 3 5 9q0 15 -21 15q-13 0 -13 -11q0 -6 5 -6q4 0 4 3q0 2 -1.5 3.5t-1.5 2.5q0 5 7 5q10 0 10 -12q0 -4 -2 -6q-16 2 -16 -6q0 -6 8 -6q6 0 11 5q6 -4 6 -15q0 -14 -12 -14t-12 9q0 3 3 3l1 -1q2 -1 4 -1q4 0 4 5t-7 5q-9 0 -9 -10q0 -13 16 -13
q25 0 25 19zM820 522q-8 -1 -10 8l-7 35q-1 4 1 6t4 2h2l-1 3h-28l1 -3q7 1 9 -8l3 -15h-24l-3 15q-1 4 1 6t4 2h2l-1 3h-29l1 -3q8 1 10 -8l7 -35q1 -4 -1 -6t-4 -2h-2l1 -3h29l-1 3q-8 -1 -10 8l-3 16h24l3 -16q1 -4 -1 -6t-4 -2h-2l1 -3h29zM498 519l-1 3q-8 -1 -10 8
l-7 35q-1 4 1 6t4 2h2l-1 3h-45v-17h4q-1 13 13 13h4q5 0 6 -6l3 -16h-4q-4 0 -7 2t-4 4l-1 3h-3l5 -23h3q-1 11 8 11h4l3 -17q1 -4 -1 -6t-4 -2h-2l1 -3h29zM202 522q-8 -1 -10 8l-7 35q-1 4 1 6t4 2h2l-1 3h-27q-20 0 -20 -15q0 -13 19 -15l-9 -16q-2 -4 -5.5 -6t-6.5 -2
h-2l1 -3h19l12 23q2 3 5 3l3 -15q1 -4 -1 -6t-4 -2h-2l1 -3h29zM400 521q0 8 -13 9q-4 2 -5 14.5t-5.5 23t-18.5 10.5q-5 0 -9 -3.5t-4 -6.5q0 -5 5 -5q4 0 4 6t5 6t7 -8t4.5 -19.5t9.5 -17.5q-8 0 -14 -6.5t-9 -6.5q-5 0 -5 4q0 2 1 3t1 2q0 5 -5 5t-5 -7q0 -4 5 -8t10 -4
q10 0 15 6.5t10 6.5q4 -7 12 -7q4 0 4 3zM827 475v6h-685v-6h685zM827 378v62h-147v-62h36v28h11v-65h-14v-33h81v33h-14v65h11v-28h36zM648 406v34h-81v-34h11l-15 -23l-15 23h10v34h-62v-34h12l37 -46v-19h-14v-33h81v33h-15v20l37 45h14zM458 308v33h-14v65h14v34h-96
q-21 0 -34 -11.5t-13 -28.5q0 -18 13 -29t34 -11h30v-19h-15v-33h81zM283 308v33h-14v65h14v34h-141v-62h41v28h33v-20h-24v-24h24v-21h-33v28h-41v-61h141zM827 271v6h-685v-6h685zM728 192q0 15 -11.5 26.5t-25.5 11.5q-8 0 -15.5 -5.5t-7.5 -16.5q0 -16 11 -27t26 -11
q8 0 15.5 5.5t7.5 16.5zM203 217q-7 13 -18 13q-15 0 -14 -23q-7 23 -21 23q-12 0 -12 -12l3 -1q0 6 8 6q16 0 24 -33q2 -8 0.5 -11.5t-3.5 -3.5h-3l1 -4h28l-1 4q-7 -2 -10 9q-5 17 -5 25q0 13 9 13q5 0 12 -7zM823 171l-1 3q-8 -1 -10 8l-7 35q-1 4 1 6t4 2h2l-1 3h-45
v-17h4q-1 13 13 13h4q5 0 6 -6l3 -16h-4q-4 0 -7 2t-4 4l-1 3h-3l5 -23h3q-1 11 8 11h4l3 -17q1 -4 -1 -6t-4 -2h-2l1 -3h29zM621 225l-1 3h-29l1 -3q8 1 10 -9l5 -21q5 -20 -11 -20q-14 0 -20 22l-4 19q-1 5 1 7t4 2h2v3h-24l1 -3q9 1 11 -9l4 -19q5 -27 28 -27q24 0 19 24
l-5 22q-1 5 1 7t4 2h3zM522 174q-6 0 -9 10l-7 32q-1 4 1 6.5t5 2.5h2l-1 3h-14l-29 -42l-5 30q-1 4 1 6t4 2l2 1l-1 3h-21l1 -3q7 0 9 -9l8 -45l3 -1l30 44l6 -30q1 -5 -0.5 -7.5t-3.5 -2.5h-2l1 -3h21zM414 171l-1 4q-7 -2 -10 9l-8 31q-3 9 8 10l-1 3h-30q-25 0 -25 -22
q0 -15 11 -25t24 -10h32zM306 174q-8 -1 -10 8l-7 35q-1 4 1 6t4 2h2l-1 3h-27q-20 0 -20 -15q0 -13 19 -15l-9 -16q-2 -4 -5.5 -6t-6.5 -2h-2l1 -3h19l12 23q2 3 5 3l3 -15q1 -4 -1 -6t-4 -2h-2l1 -3h29zM827 127v6h-685v-6h685zM694 46v2q-6 1 -6 5v20l6 6v2h-10l-24 -26
v18q0 2 1.5 3.5t2.5 1.5l2 1v2h-15v-2q6 -1 6 -6v-28h3l25 28v-20l-5 -5v-2h14zM633 48l-4 2q-1 1 -1 3v21q1 5 5 5v2h-29l-2 -10l2 -1q3 8 9 8h4q4 0 4 -3v-10h-4l-6 5h-2v-13h2q0 6 6 6h4v-11q0 -3 -4 -3h-4q-3 0 -5.5 2.5t-3.5 4.5l-1 2l-2 -1l2 -11h30v2zM583 81h-15v-2
l2 -5l-9 -19l-5 10l4 8l6 6v2h-26l1 -2q3 0 7 -6l3 -5l-7 -13l-8 18l2 6v2h-13v-2q4 -1 6 -6l13 -27h1q1 -1 1 0l8 16l9 -16h1l12 27q1 3 3 4.5t3 1.5h1v2zM480 79v2h-15v-2l1 -5l-6 -9l-6 9l3 5v2h-15v-2q5 0 8 -5l8 -12v-8l-5 -6v-2h17v2q-5 0 -5 6v8l8 12zM425 64
q0 18 -20 18t-20 -18q0 -19 20 -19t20 19zM364 46v2q-5 0 -5 5v20l5 6v2h-18q-13 0 -13 -9q0 -5 9 -9l-7 -10l-8 -5v-2h11l7 12q3 4 7 4v-9l-5 -5v-2h17zM309 46v2q-6 1 -6 6v20l6 5v2h-18v-2q6 0 6 -5v-9q-2 0 -4 2l-8 8l1 4v2h-14v-2q5 -1 8 -4l10 -9l-13 -13l-7 -5v-2h17
v2l-2 5l8 8q2 2 4 2v-9q0 -3 -1.5 -4.5t-3.5 -1.5h-1v-2h18zM606 -83q0 8 -11 7v-13q11 0 11 6zM525 -82q0 8 -11 6v-12q11 -1 11 6zM394 -83q0 8 -11 7v-13q11 0 11 6zM564 -92l-5 12l-5 -12h10zM800 -88q0 13 -11 13t-11 -12q0 -13 11 -13t11 12zM441 -88q0 13 -11 13
t-11 -12q0 -13 11 -13t11 12zM176 548h-5q-15 0 -15 15q0 9 8 9t9 -5zM566 553q-3 -4 -7 -4t-4 2q0 3 4 3q5 0 7 -1zM272 553q-3 -4 -7 -4t-4 2q0 3 4 3q5 0 7 -1zM684 535q0 -13 -11 -13q-9 0 -17 11.5t-8 26.5q0 14 11 14q9 0 17 -12t8 -27zM392 384h-11q-13 0 -13 11
t13 11h11v-22zM280 200h-5q-15 0 -15 15q0 9 8 9t9 -5zM716 187q0 -13 -11 -13q-9 0 -17 11.5t-8 26.5q0 14 11 14q9 0 17 -12t8 -27zM393 182q0 -7 -4 -7h-5q-11 0 -18.5 10t-7.5 22q0 17 14 17h6q4 -1 6 -7zM553 79q5 0 0 -9q-5 9 0 9zM352 64h-3q-8 0 -8 8q0 6 7 6
q4 0 4 -4v-10zM417 64q0 -17 -12 -17t-12 17q0 16 12 16t12 -16z" />
    <glyph glyph-name="fi" unicode="&#xfb01;" horiz-adv-x="529" 
d="M507 524h-169v142h169v-142zM316 364h-76v-364h-169v364h-63v121h63v10q0 84 43.5 127.5t149.5 43.5h47v-118h-13q-34 0 -47 -12.5t-13 -40.5v-10h78v-121zM507 0h-169v491h169v-491z" />
    <glyph glyph-name="fl" unicode="&#xfb02;" horiz-adv-x="529" 
d="M507 0h-169v666h169v-666zM316 364h-76v-364h-169v364h-63v121h63v10q0 84 43.5 127.5t149.5 43.5h47v-118h-13q-34 0 -47 -12.5t-13 -40.5v-10h78v-121z" />
    </font>
</defs>
</svg>
